<svg xmlns="http://www.w3.org/2000/svg" viewBox="0 0 1000 1000" fill-rule="evenodd" clip-rule="evenodd" stroke-linecap="round" stroke-linejoin="round" stroke-miterlimit="1.5"><path style="line-height:normal;font-variant-ligatures:normal;font-variant-position:normal;font-variant-caps:normal;font-variant-numeric:normal;font-variant-alternates:normal;font-feature-settings:normal;text-indent:0;text-align:start;text-decoration-line:none;text-decoration-style:solid;text-decoration-color:#000;text-transform:none;text-orientation:mixed;white-space:normal;shape-padding:0;isolation:auto;mix-blend-mode:normal;solid-color:#000;solid-opacity:1" d="M287.11 8.877c-102.53 0-186.034 83.5-186.034 186.031v650.069a13.546 13.546 0 00.08 1.582c.863 79.785 66.085 144.564 146.069 144.564h609.992a13.546 13.546 0 100-27.09H247.225c-65.855 0-119.059-53.202-119.059-119.056 0-65.855 53.204-119.059 119.059-119.059H712.89c102.529 0 186.033-83.504 186.033-186.033V194.908c0-102.53-83.504-186.031-186.033-186.031zm0 27.09h425.78c87.867 0 158.944 71.073 158.944 158.941v344.977c0 87.866-71.077 158.943-158.943 158.943H247.225c-49.083 0-92.535 24.464-119.059 61.746V194.908c0-87.868 71.077-158.941 158.943-158.941zm-39.885 795.465a13.546 13.546 0 100 27.09h579.304a13.546 13.546 0 100-27.09z" color="#000" font-weight="400" font-family="sans-serif" clip-rule="nonzero" overflow="visible" fill="#2d2d45" fill-rule="nonzero"/></svg>