<?xml version="1.0" encoding="UTF-8" standalone="no"?><!DOCTYPE svg PUBLIC "-//W3C//DTD SVG 1.1//EN" "http://www.w3.org/Graphics/SVG/1.1/DTD/svg11.dtd"><svg width="100%" height="100%" viewBox="0 0 1000 1000" version="1.1" xmlns="http://www.w3.org/2000/svg" xmlns:xlink="http://www.w3.org/1999/xlink" xml:space="preserve" xmlns:serif="http://www.serif.com/" style="fill-rule:evenodd;clip-rule:evenodd;stroke-linejoin:round;stroke-miterlimit:2;"><path d="M469.621,499.997l-328.57,-328.569c-0.844,-1.017 -1.786,-1.96 -2.533,-3.051c-5.23,-7.635 -4.834,-18.605 1.196,-25.867c3.392,-4.085 8.303,-6.82 13.561,-7.554c2.613,-0.364 5.264,-0.001 7.888,0.365c1.253,0.42 2.55,0.726 3.759,1.26c3.247,1.434 3.818,2.224 6.514,4.462l328.569,328.57l328.57,-328.57c1.016,-0.844 1.96,-1.786 3.05,-2.533c2.19,-1.5 4.639,-2.581 7.223,-3.189c2.568,-0.604 5.242,-0.487 7.887,-0.365c3.411,0.803 4.386,0.782 7.487,2.51c8.129,4.527 12.592,14.622 10.459,23.688c-0.607,2.584 -1.689,5.033 -3.189,7.223c-0.747,1.091 -1.688,2.034 -2.533,3.051l-328.569,328.569l328.569,328.57c1.692,2.037 3.397,4.1 4.462,6.514c4.276,9.682 0.152,22.239 -9.199,27.448c-6.954,3.873 -16.021,3.46 -22.597,-1.045c-1.09,-0.747 -2.034,-1.689 -3.05,-2.533l-328.57,-328.569l-328.569,328.569c-2.038,1.692 -4.101,3.397 -6.514,4.462c-9.683,4.276 -22.24,0.152 -27.448,-9.199c-3.874,-6.954 -3.461,-16.021 1.044,-22.597c0.747,-1.09 1.689,-2.034 2.533,-3.05l328.57,-328.57Z"/></svg>