<svg xmlns="http://www.w3.org/2000/svg" viewBox="0 0 1000 1000" fill-rule="evenodd" clip-rule="evenodd" stroke-linecap="round" stroke-linejoin="round" stroke-miterlimit="1.5"><path style="line-height:normal;font-variant-ligatures:normal;font-variant-position:normal;font-variant-caps:normal;font-variant-numeric:normal;font-variant-alternates:normal;font-feature-settings:normal;text-indent:0;text-align:start;text-decoration-line:none;text-decoration-style:solid;text-decoration-color:#000;text-transform:none;text-orientation:mixed;white-space:normal;shape-padding:0;isolation:auto;mix-blend-mode:normal;solid-color:#000;solid-opacity:1" d="M499.273 156.355a16.687 16.687 0 00-6.628 1.694L15.113 392.564a16.687 16.687 0 000 29.954l477.532 234.515a16.687 16.687 0 0014.71 0l477.532-234.515a16.687 16.687 0 000-29.954L507.355 158.05a16.687 16.687 0 00-8.082-1.694zm.727 35.258l439.682 215.928L500 623.467 60.318 407.54z" color="#000" font-weight="400" font-family="sans-serif" clip-rule="nonzero" overflow="visible" fill-rule="nonzero"/><path d="M221.865 490.683c1.003.889 2.121 1.663 3.01 2.667a16.666 16.666 0 013.711 7.07c.321 1.302.324 2.662.485 3.993 0 58.925-.183 117.85.001 176.774.202 21.531 13.477 41.841 28.341 56.045 26.566 25.386 61.35 41.027 97.002 52.189 53.914 16.881 111.114 22.714 167.94 20.421 56.095-2.262 112.642-12.422 163.386-35.722 26.258-12.056 51.686-27.392 69.553-51.037 9.153-12.112 15.586-26.646 15.635-42.29V502.138c.161-1.331.164-2.691.485-3.992 2.798-11.355 19.615-17.311 28.687-7.071a16.692 16.692 0 013.711 7.071c.32 1.301.323 2.661.484 3.992v178.707c-.047 15.236-3.947 30.38-10.863 44.026-14.632 28.867-40.672 50.294-68.153 66.318-43.536 25.386-93.16 39.292-143.315 46.622-70.58 10.316-143.326 7.684-212.208-9.455-47.936-11.927-94.797-30.038-132.175-63.998-22.918-20.823-41.053-49.334-41.85-81.235-.019-.759-.026-1.518-.028-2.278V504.413c.426-3.514.229-4.549 1.911-7.753 2.469-4.705 7.416-8.16 12.761-8.809 3.593-.436 4.491.115 7.928.962l3.561 1.87z"/></svg>