<svg viewBox="0 0 1000 1000" xmlns="http://www.w3.org/2000/svg" fill-rule="evenodd" clip-rule="evenodd" stroke-linejoin="round" stroke-miterlimit="2"><path d="M578.702 184.505c44.715-44.715 89.329-89.533 134.147-134.145 18.377-18.118 44.54-27.291 70.999-27.5.418-.002.837-.003 1.255-.002 53.124.27 103.901 30.443 139.747 70.324 24.635 27.407 43.431 60.615 50.006 97.233 6.062 33.767.121 71.273-25.494 97.016L815.495 421.298 321.057 915.736c-3.06 2.596-6.35 4.934-10.163 6.09-1.272.386-2.597.561-3.896.841L74.064 953.278c-3.938.154-4.987.466-8.869-.467-8.704-2.091-15.912-9.289-18.006-18.006-.933-3.881-.621-4.931-.467-8.869l30.611-232.934.261-1.579.462-1.524.361-1.551.564-1.498.75-1.404.657-1.45.845-1.36 1.01-1.23.927-1.295 1.094-1.168 494.438-494.438zm17.235 51.705l-471.35 471.35-25.396 193.249 193.249-25.396 471.35-471.35-.597-.597L595.937 236.21zM784.413 71.606c-13.456.062-27.362 3.537-37.415 13.543L630.407 201.74 798.26 369.593c38.962-38.962 78.198-77.653 116.885-116.887 12.122-12.415 14.569-32.014 12.556-48.239-3.697-29.807-19.577-57.349-40.188-79.892-20.986-22.951-47.56-41.506-77.663-49.474-8.295-2.195-16.746-3.508-25.437-3.495z"/></svg>