<svg viewBox="0 0 1000 1000" xmlns="http://www.w3.org/2000/svg" fill-rule="evenodd" clip-rule="evenodd" stroke-linejoin="round" stroke-miterlimit="2"><path d="M913.68 66.159c32.748.312 64.273 22.276 75.353 53.704 2.962 8.402 4.471 17.32 4.556 26.206.735 235.792.001 471.587.001 707.381-.103 33.011-22.13 64.704-53.705 75.835-8.397 2.96-17.255 4.471-26.206 4.556-275.624.86-551.251.002-826.877.002-33.104-.104-64.774-22.33-75.835-53.706-2.958-8.392-4.47-17.245-4.556-26.205-.747-235.793-.001-471.589-.001-707.383.105-33.046 22.188-64.724 53.705-75.834 8.393-2.958 17.246-4.471 26.205-4.556 275.785-.877 551.575-.877 827.36 0zM51.826 703.174c.091 50.156.216 100.312.375 150.467.171 17.922 15.655 34.231 34.41 34.41 275.591.86 551.187.86 826.778 0 17.868-.17 34.229-15.401 34.41-34.409.129-41.468.236-82.936.319-124.404L790.069 576.243 627.437 711.444s-4.281 3.235-8.35 4.475c-9.066 2.764-19.571-.281-25.772-7.648-.099-.118-.195-.239-.293-.359L320.536 365.958 51.826 703.174zm896.403-37.559c.253-173.086.11-346.172-.43-519.257-.17-17.876-15.357-34.228-34.41-34.409-275.504-.876-551.01-.001-826.515-.001-18.098.057-34.494 15.627-34.673 34.411-.511 161.157-.673 322.317-.485 483.475l248.815-312.248c1.601-1.95 2.245-2.508 3.441-3.516 4.781-4.027 11.048-6.124 17.295-6.036 6.991.299 13.776 3.352 18.436 8.564.408.456.475.546.838.988l274.565 344.563 159.65-132.723s4.055-3.152 8.191-4.533c8.69-2.9 18.834-.715 25.58 5.496.116.106.229.216.344.325l139.358 134.901zM719.091 191.046c29.174.139 57.914 13.045 77.334 34.668 21.736 24.202 31.113 58.871 24.591 90.722-8.195 40.019-41.804 73.828-82.851 81.568-31.59 5.957-65.677-3.59-89.589-25.325-15.943-14.491-27.24-33.993-31.813-54.967-8.501-38.992 7.446-82.203 40.037-106.281 17.628-13.023 39.495-20.211 61.282-20.384.337-.001.673-.002 1.009-.001zm-.527 45.79c-30.457.146-58.302 26.583-58.402 58.401-.096 30.549 26.462 58.785 58.593 58.785 20.749 0 41.052-11.956 51.189-30.078 8.792-15.72 9.749-35.584 2.453-52.114-9.078-20.569-30.756-34.886-53.452-34.994h-.381z"/></svg>