<svg viewBox="0 0 1000 1000" xmlns="http://www.w3.org/2000/svg" fill-rule="evenodd" clip-rule="evenodd" stroke-linejoin="round" stroke-miterlimit="2"><path d="M500.447 8.059c19.375.166 38.441 7.684 52.727 20.889l365.519 339.974c3.793 4.159 6.775 8.884 7.669 14.275.225 1.355.225 2.738.338 4.107v527.417c-.103 31.669-21.194 62.125-51.589 72.842-8.079 2.848-16.653 4.298-25.177 4.378-233.136.76-466.275.002-699.413.002-32.08-.105-62.698-21.622-73.152-52.489-2.695-7.958-4.043-16.383-4.069-24.734V387.304c.462-5.61 1.891-11.011 5.23-15.338.839-1.087 1.851-2.03 2.777-3.044L446.825 28.95c14.136-13.07 33.117-20.614 52.281-20.888.447-.003.894-.005 1.341-.003zm-.608 50.207c-6.933.059-13.728 2.74-18.874 7.498L123.508 398.238c0 172.207-.545 344.414.001 516.62.134 14.097 12.196 26.737 26.875 26.876 233.076.759 466.156.759 699.232 0 13.987-.132 26.827-12.164 26.876-27.095V398.238C757.245 287.326 638.996 175.332 518.751 65.503c-5.027-4.537-11.668-7.139-18.43-7.236l-.482-.001z"/></svg>